Exact Audio Copy V0.99 prebeta 5 from 4. May 2009

Отчёт EAC об извлечении, выполненном 3. июня 2009, 14:47

Unknown Artist / Unknown Title

Дисковод: Optiarc DVD RW AD-7200S   Adapter: 2  ID: 0

Режим чтения                 : Достоверность
Использование точного потока : Да
Отключение кэша аудио        : Да
Использование указателей C2  : Нет

Коррекция смещения при чтении                     : 48
Способность читать области Lead-in и Lead-out     : Нет
Заполнение пропущенных сэмплов тишиной            : Да
Удаление блоков с тишиной в начале и конце        : Нет
При вычислениях CRC использовались нулевые сэмплы : Да
Интерфейс                                         : Установленный внешний ASPI-интерфейс

Выходной формат          : Monkey's Audio (без потерь)
Выбранный битрейт        : Normal Lossless Compression
Качество                 : Высокий
Добавление ID3-тэга      : Да
Утилита сжатия           : C:\Program Files\Exact Audio Copy\MAC.exe


TOC извлечённого CD

     Трек |   Старт  | Длительность | Начальный сектор | Конечный сектор 
    ---------------------------------------------------------------------
       1  |  0:00.32 |    4:11.68   |          32      |      18924      
       2  |  4:12.25 |    4:55.20   |       18925      |      41069      
       3  |  9:07.45 |    3:40.47   |       41070      |      57616      
       4  | 12:48.17 |    4:39.43   |       57617      |      78584      
       5  | 17:27.60 |    4:55.02   |       78585      |     100711      
       6  | 22:22.62 |    4:23.25   |      100712      |     120461      
       7  | 26:46.12 |    4:19.48   |      120462      |     139934      
       8  | 31:05.60 |    3:26.45   |      139935      |     155429      
       9  | 34:32.30 |    4:35.27   |      155430      |     176081      
      10  | 39:07.57 |    2:57.65   |      176082      |     189421      


Характеристики диапазона извлечения и сообщения об ошибках

Выбранный диапазон

     Имя файла D:\Music\RIPs\ABBA\ABBA - 1980 - Super Trouper\ABBA - 1980 - Super Trouper.wav

     Пиковый уровень 98.8 %
     Качество диапазона 100.0 %
     CRC теста 21317A24
     CRC копии 21317A24
     Копирование... OK

Ошибок не произошло

Конец отчёта
